<svg xmlns="http://www.w3.org/2000/svg" width="26" height="26" viewBox="0 0 26 26" fill="none">
  <g clip-path="url(#clip0_73_16275)">
    <path d="M6.46618 26.0015C6.43801 26.0015 6.40985 26.0004 6.38277 25.9993C2.35927 25.7891 0.211016 23.6409 0.000849024 19.6152C-0.0305676 19.0454 0.259766 18.494 0.760266 18.1765C3.62568 16.3522 6.30801 14.3047 8.73468 12.0904C8.95676 11.8889 9.2991 11.9051 9.49951 12.1261C9.7021 12.3471 9.68585 12.6895 9.46485 12.892C6.99268 15.1475 4.25835 17.233 1.34093 19.092C1.17627 19.196 1.07227 19.3834 1.08202 19.5578C1.26077 22.9855 3.0136 24.7383 6.44127 24.917C6.61785 24.9333 6.80526 24.8239 6.90818 24.6603C8.66968 21.8783 10.6598 19.2469 12.8243 16.8408C13.0247 16.6187 13.3692 16.6014 13.5891 16.8007C13.8123 17.0011 13.8307 17.3424 13.6303 17.5655C11.5058 19.9272 9.55151 22.5088 7.82468 25.2388C7.52785 25.709 7.00135 26.0015 6.46618 26.0015Z" fill="white"/>
    <path d="M17.2036 13.7696C17.0551 13.7696 16.9089 13.709 16.8006 13.5898C16.6001 13.3677 16.6186 13.0254 16.8417 12.825C19.2478 10.6594 21.8771 8.66932 24.6601 6.9089C24.8237 6.8049 24.9277 6.61748 24.918 6.44307C24.7392 3.0154 22.9864 1.26257 19.5587 1.08381C19.3908 1.08056 19.1947 1.17698 19.0918 1.34056C17.2317 4.26123 15.1463 6.99448 12.8908 9.46557C12.6882 9.68765 12.347 9.7039 12.126 9.50023C11.905 9.29873 11.8887 8.9564 12.0913 8.7354C14.3046 6.30982 16.3521 3.6264 18.1764 0.760982C18.4873 0.266982 19.0647 -0.0385183 19.6172 0.00156501C23.6407 0.211732 25.789 2.35998 25.9991 6.38565C26.0306 6.95548 25.7402 7.5069 25.2397 7.82432C22.5086 9.55223 19.9271 11.5055 17.5654 13.6299C17.4625 13.7231 17.3325 13.7696 17.2036 13.7696Z" fill="white"/>
    <path d="M1.62498 18.6878C1.39857 18.6878 1.18731 18.5448 1.1104 18.3173L0.381315 16.1289C0.244815 15.7173 0.277315 15.2774 0.474482 14.8907C0.675982 14.4931 1.02373 14.1995 1.45273 14.063C7.80865 12.0448 11.9676 7.81003 13.8136 1.47469C13.9403 1.04244 14.2252 0.687109 14.6174 0.475859C14.9987 0.270025 15.4375 0.224525 15.8546 0.353442L18.3051 1.10744C18.5911 1.19628 18.7514 1.49853 18.6626 1.78453C18.5748 2.07053 18.2736 2.23194 17.9855 2.14311L15.5361 1.38911C15.4006 1.34686 15.2566 1.36094 15.132 1.42919C14.9976 1.50178 14.8991 1.62636 14.8546 1.77803C12.9014 8.48169 8.50307 12.9613 1.78207 15.0965C1.63148 15.1442 1.51015 15.246 1.44082 15.3825C1.3769 15.5093 1.36607 15.6534 1.41157 15.7877L2.14065 17.976C2.2349 18.2599 2.08107 18.5664 1.79832 18.6618C1.73873 18.6791 1.6824 18.6878 1.62498 18.6878Z" fill="white"/>
    <path d="M15.7083 20.584C15.5545 20.584 15.405 20.518 15.301 20.3988L7.71763 11.7321C7.51938 11.5068 7.54321 11.1655 7.76854 10.9673C7.99171 10.7701 8.33404 10.7929 8.53229 11.0182L15.3389 18.7965L15.7137 16.1727C15.7473 15.9344 15.9347 15.747 16.1741 15.7134L18.7969 15.3385L11.0185 8.53196C10.7932 8.3348 10.7705 7.99246 10.9676 7.76713C11.1659 7.5418 11.5071 7.51905 11.7314 7.71621L20.398 15.2995C20.5573 15.4393 20.6212 15.6592 20.5605 15.8618C20.4999 16.0655 20.3265 16.2139 20.1175 16.2442L16.7288 16.7285L16.2445 20.1182C16.2153 20.3273 16.0647 20.5006 15.8621 20.5613C15.8123 20.5765 15.7603 20.584 15.7083 20.584Z" fill="white"/>
  </g>
  <defs>
    <clipPath id="clip0_73_16275">
      <rect width="26" height="26" fill="white"/>
    </clipPath>
  </defs>
</svg>