<svg xmlns="http://www.w3.org/2000/svg" width="26" height="26" viewBox="0 0 26 26" fill="none">
  <g clip-path="url(#clip0_73_16208)">
    <path d="M25.9854 5.616C25.9805 5.56075 25.9691 5.50875 25.9529 5.45513C25.9366 5.4015 25.9171 5.35275 25.8911 5.304C25.8797 5.28288 25.8781 5.25688 25.8635 5.23575L22.6135 0.36075C22.4624 0.1365 22.2089 0 21.9375 0H4.0625C3.79113 0 3.53763 0.1365 3.3865 0.362375L0.1365 5.23738C0.121875 5.2585 0.12025 5.28288 0.108875 5.30562C0.082875 5.35438 0.063375 5.40313 0.047125 5.45675C0.030875 5.51038 0.0195 5.56238 0.014625 5.61763C0.011375 5.64038 0 5.6615 0 5.6875V24.375C0 25.272 0.729625 26 1.625 26H24.375C25.2704 26 26 25.272 26 24.375V5.6875C26 5.6615 25.9886 5.64038 25.9854 5.616ZM21.502 1.625L23.6698 4.875H16.1265L15.5837 1.625H21.502ZM12.0624 1.625H13.936L14.4788 4.875H11.5212L12.0624 1.625ZM11.375 6.5H14.625V9.43638L13.2568 8.97813C13.0894 8.9245 12.909 8.9245 12.7432 8.97813L11.375 9.43638V6.5ZM4.498 1.625H10.4163L9.8735 4.875H2.33025L4.498 1.625ZM24.375 25.1875V24.375H1.625V6.5H9.75V10.5625C9.75 10.8241 9.87512 11.0695 10.088 11.2206C10.2993 11.375 10.5706 11.4107 10.8193 11.3344L13 10.6064L15.1807 11.3328C15.2653 11.3604 15.3514 11.375 15.4375 11.375C15.6065 11.375 15.7722 11.323 15.912 11.2206C16.1249 11.0695 16.25 10.8241 16.25 10.5625V6.5H24.375V24.375C24.375 24.375 24.375 24.375 24.3766 24.375L24.375 25.1875Z" fill="white"/>
    <path d="M8.9375 17.875H4.0625C3.614 17.875 3.25 18.239 3.25 18.6875C3.25 19.136 3.614 19.5 4.0625 19.5H8.9375C9.386 19.5 9.75 19.136 9.75 18.6875C9.75 18.239 9.386 17.875 8.9375 17.875Z" fill="white"/>
    <path d="M6.5 21.125H4.0625C3.614 21.125 3.25 21.489 3.25 21.9375C3.25 22.386 3.614 22.75 4.0625 22.75H6.5C6.9485 22.75 7.3125 22.386 7.3125 21.9375C7.3125 21.489 6.9485 21.125 6.5 21.125Z" fill="white"/>
  </g>
  <defs>
    <clipPath id="clip0_73_16208">
      <rect width="26" height="26" fill="white"/>
    </clipPath>
  </defs>
</svg>