<svg xmlns="http://www.w3.org/2000/svg" width="26" height="26" viewBox="0 0 26 26" fill="none">
  <path d="M25.9756 8.74088L24.3506 2.24087C24.2612 1.8785 23.9346 1.625 23.5625 1.625H2.4375C2.06538 1.625 1.73875 1.8785 1.64937 2.24087L0.024375 8.74088C0.008125 8.80425 0 8.87087 0 8.9375C0 10.2992 0.645125 11.5001 1.625 12.2379V23.5625C1.625 24.011 1.989 24.375 2.4375 24.375H10.5625C11.011 24.375 11.375 24.011 11.375 23.5625V17.875H14.625V23.5625C14.625 24.011 14.989 24.375 15.4375 24.375H23.5625C24.011 24.375 24.375 24.011 24.375 23.5625V12.2379C25.3549 11.5001 26 10.2992 26 8.9375C26 8.87087 25.9919 8.80425 25.9756 8.74088ZM22.75 22.75H16.25V17.0625C16.25 16.614 15.886 16.25 15.4375 16.25H10.5625C10.114 16.25 9.75 16.614 9.75 17.0625V22.75H3.25V12.935C3.44988 12.9691 3.65138 13 3.85938 13C5.09763 13 6.19938 12.3841 6.90625 11.4286C7.61312 12.3841 8.71488 13 9.95312 13C11.1914 13 12.2931 12.3841 13 11.4286C13.7069 12.3841 14.8086 13 16.0469 13C17.2851 13 18.3869 12.3841 19.0938 11.4286C19.8006 12.3841 20.9024 13 22.1406 13C22.3486 13 22.5501 12.9691 22.75 12.935V22.75ZM22.1406 11.375C20.9089 11.375 19.9062 10.2814 19.9062 8.9375C19.9062 8.489 19.5422 8.125 19.0938 8.125C18.6453 8.125 18.2812 8.489 18.2812 8.9375C18.2812 10.2814 17.2786 11.375 16.0469 11.375C14.8151 11.375 13.8125 10.2814 13.8125 8.9375C13.8125 8.489 13.4485 8.125 13 8.125C12.5515 8.125 12.1875 8.489 12.1875 8.9375C12.1875 10.2814 11.1849 11.375 9.95312 11.375C8.72137 11.375 7.71875 10.2814 7.71875 8.9375C7.71875 8.489 7.35475 8.125 6.90625 8.125C6.45775 8.125 6.09375 8.489 6.09375 8.9375C6.09375 10.2814 5.09113 11.375 3.85938 11.375C2.65687 11.375 1.67213 10.3317 1.62663 9.03175L3.07288 3.25H22.9287L24.375 9.03175C24.3279 10.3317 23.3431 11.375 22.1406 11.375Z" fill="white"/>
</svg>