<svg xmlns="http://www.w3.org/2000/svg" width="26" height="26" viewBox="0 0 26 26" fill="none">
  <path d="M19.924 15.3705C18.8679 11.6136 16.5168 7.72418 13.9104 5.35514C14.6172 4.60789 15.0205 3.61466 15.0205 2.55612V0H6.75586V2.55612C6.75586 3.61486 7.15927 4.60825 7.86635 5.35554C5.22963 7.75425 2.85419 11.7046 1.81627 15.4965C0.766924 19.3634 3.75682 22.9544 7.51215 22.9404H14.21C15.07 24.7477 16.9138 26 19.0449 26C21.9955 26 24.396 23.5995 24.396 20.6489C24.396 17.9977 22.4578 15.791 19.924 15.3705ZM8.2793 1.52344H13.4971V2.55612C13.4971 3.36187 13.1244 4.10744 12.4905 4.58936H9.28594C8.65198 4.10744 8.27935 3.36187 8.27935 2.55612L8.2793 1.52344ZM7.51215 21.417C4.73284 21.498 2.4746 18.5836 3.28562 15.8987C4.31019 12.1556 6.7161 8.26211 9.31641 6.11279H12.4602C14.9317 8.15278 17.2272 11.7734 18.328 15.346C15.7152 15.6973 13.6938 17.9414 13.6938 20.6489C13.6938 20.9097 13.7129 21.1661 13.7492 21.417H7.51215ZM19.0449 24.4766C16.9344 24.4766 15.2173 22.7595 15.2173 20.6489C15.2173 18.5384 16.9344 16.8213 19.0449 16.8213C21.1555 16.8213 22.8726 18.5384 22.8726 20.6489C22.8726 22.7595 21.1555 24.4766 19.0449 24.4766Z" fill="white"/>
  <path d="M20.2929 18.3242L19.0447 19.5724L17.7965 18.3242L16.7192 19.4014L17.9675 20.6496L16.7192 21.8979L17.7965 22.9751L19.0447 21.7269L20.2929 22.9751L21.3701 21.8979L20.1219 20.6496L21.3701 19.4014L20.2929 18.3242Z" fill="white"/>
  <path d="M11.3082 13.0025H10.468C10.0446 13.0025 9.7002 12.6581 9.7002 12.2347C9.7002 11.8113 10.0446 11.4669 10.468 11.4669H11.2889C11.7129 11.4669 12.0577 11.8117 12.0577 12.2356H13.5812C13.5812 11.0945 12.7429 10.1457 11.6498 9.97211V8.94531H10.1264V9.96901C9.02445 10.1345 8.17676 11.0874 8.17676 12.2347C8.17676 13.4981 9.20462 14.526 10.468 14.526H11.3082C11.7315 14.526 12.076 14.8704 12.076 15.2938C12.076 15.7172 11.7316 16.0616 11.3082 16.0616H10.4531C10.0446 16.0616 9.71233 15.7294 9.71233 15.3209H8.18889C8.18889 16.4584 9.03217 17.4023 10.1264 17.5612V18.5832H11.6498V17.5595C12.7517 17.3941 13.5994 16.4412 13.5994 15.2938C13.5995 14.0304 12.5716 13.0025 11.3082 13.0025Z" fill="white"/>
</svg>