<svg xmlns="http://www.w3.org/2000/svg" width="26" height="26" viewBox="0 0 26 26" fill="none">
  <g clip-path="url(#clip0_73_15032)">
    <path d="M20.3125 26.0003H13C12.5515 26.0003 12.1875 25.6363 12.1875 25.1878V19.2295C12.1875 18.781 12.5515 18.417 13 18.417H20.3125C20.761 18.417 21.125 18.781 21.125 19.2295V25.1878C21.125 25.6363 20.761 26.0003 20.3125 26.0003ZM13.8125 24.3753H19.5V20.042H13.8125V24.3753Z" fill="white"/>
    <path d="M16.5209 20.042H9.47925C9.03075 20.042 8.66675 19.678 8.66675 19.2295V12.7295C8.66675 12.281 9.03075 11.917 9.47925 11.917H16.5209C16.9694 11.917 17.3334 12.281 17.3334 12.7295V19.2295C17.3334 19.678 16.9694 20.042 16.5209 20.042ZM10.2917 18.417H15.7084V13.542H10.2917V18.417Z" fill="white"/>
    <path d="M13 26.0003H5.6875C5.239 26.0003 4.875 25.6363 4.875 25.1878V19.2295C4.875 18.781 5.239 18.417 5.6875 18.417H13C13.4485 18.417 13.8125 18.781 13.8125 19.2295V25.1878C13.8125 25.6363 13.4485 26.0003 13 26.0003ZM6.5 24.3753H12.1875V20.042H6.5V24.3753Z" fill="white"/>
    <path d="M13 15.167C12.5515 15.167 12.1875 14.803 12.1875 14.3545V12.7295C12.1875 12.281 12.5515 11.917 13 11.917C13.4485 11.917 13.8125 12.281 13.8125 12.7295V14.3545C13.8125 14.803 13.4485 15.167 13 15.167Z" fill="white"/>
    <path d="M9.47925 21.667C9.03075 21.667 8.66675 21.303 8.66675 20.8545V19.2295C8.66675 18.781 9.03075 18.417 9.47925 18.417C9.92775 18.417 10.2917 18.781 10.2917 19.2295V20.8545C10.2917 21.303 9.92775 21.667 9.47925 21.667Z" fill="white"/>
    <path d="M16.5208 21.667C16.0723 21.667 15.7083 21.303 15.7083 20.8545V19.2295C15.7083 18.781 16.0723 18.417 16.5208 18.417C16.9693 18.417 17.3333 18.781 17.3333 19.2295V20.8545C17.3333 21.303 16.9693 21.667 16.5208 21.667Z" fill="white"/>
    <path d="M24.1042 25.9998H1.89583C0.850417 25.9998 0 25.1494 0 24.104V9.20817C0 8.94059 0.132167 8.69034 0.352083 8.53867L12.5396 0.142836C12.8169 -0.0489141 13.1842 -0.0489141 13.4615 0.142836L25.649 8.53867C25.8678 8.69034 26 8.94059 26 9.20817V24.104C26 25.1494 25.1496 25.9998 24.1042 25.9998ZM1.625 9.635V24.104C1.625 24.2535 1.74633 24.3748 1.89583 24.3748H24.1042C24.2537 24.3748 24.375 24.2535 24.375 24.104V9.635L13 1.79925L1.625 9.635Z" fill="white"/>
  </g>
  <defs>
    <clipPath id="clip0_73_15032">
      <rect width="26" height="26" fill="white"/>
    </clipPath>
  </defs>
</svg>