<svg xmlns="http://www.w3.org/2000/svg" width="48" height="48" viewBox="0 0 48 48" fill="none">
  <path d="M34.4059 19.7567C32.458 15.3794 26.5086 6.62649 21.3528 8.90124C21.018 9.10989 20.7126 9.36241 20.4448 9.65206L10.5298 23.4446C11.0247 23.5864 11.4545 23.8968 11.7448 24.3221C11.7823 24.3746 16.2298 32.1671 16.2448 32.2271C16.4609 32.694 16.5086 33.2214 16.3798 33.7196L33.3073 32.2421C37.3393 31.2793 37.0108 25.7379 34.4059 19.7567ZM25.6463 10.9546C31.1677 14.1293 37.599 27.6221 33.6672 30.5397C32.0298 31.4688 28.4508 29.3535 25.3042 24.8806C23.1658 21.9103 21.2833 17.5982 20.9866 14.5085C20.4982 10.4845 22.3087 8.74948 25.6463 10.9546Z" fill="#F7881F"/>
  <path d="M14.9249 33.3598C14.9785 33.1684 14.9543 32.9635 14.8574 32.7898L10.5524 25.2298C10.5037 25.1446 10.4386 25.0698 10.361 25.0098C10.2833 24.9497 10.1946 24.9055 10.0999 24.8797C10.0052 24.854 9.9063 24.8471 9.80892 24.8596C9.71155 24.872 9.61758 24.9035 9.5324 24.9523L5.5799 27.2023C-0.186855 30.7389 4.67765 39.2091 10.6275 36.0597L14.5724 33.8098C14.6583 33.7622 14.7337 33.6979 14.7943 33.6206C14.8548 33.5433 14.8993 33.4546 14.9249 33.3598Z" fill="#F7881F"/>
  <path d="M15.66 34.875C15.4406 35.063 12.5237 36.7101 11.9175 37.0575L15.4425 41.4C15.8023 41.8371 16.3207 42.1138 16.8841 42.1695C17.4475 42.2253 18.01 42.0555 18.4485 41.6973C18.887 41.3392 19.1657 40.8219 19.2236 40.2587C19.2815 39.6955 19.1138 39.1323 18.7574 38.6924L15.66 34.875Z" fill="#F7881F"/>
  <path d="M37.1102 15.8712C36.9446 15.8713 36.7837 15.8167 36.6524 15.7158C36.5212 15.615 36.4269 15.4735 36.3845 15.3135C36.342 15.1535 36.3537 14.9839 36.4176 14.8312C36.4816 14.6785 36.5943 14.5513 36.7381 14.4693L41.2293 11.9128C41.4022 11.8143 41.6071 11.7885 41.799 11.8412C41.9909 11.8938 42.154 12.0204 42.2525 12.1933C42.351 12.3662 42.3768 12.5711 42.3242 12.763C42.2716 12.9549 42.1449 13.118 41.972 13.2165L37.4808 15.773C37.3679 15.8374 37.2402 15.8713 37.1102 15.8712Z" fill="#F7881F"/>
  <path d="M33.8648 11.6452C33.7298 11.6451 33.5973 11.6085 33.4813 11.5393C33.3653 11.4702 33.2702 11.371 33.2059 11.2522C33.1416 11.1335 33.1106 10.9996 33.1161 10.8647C33.1216 10.7298 33.1634 10.5989 33.2371 10.4858L36.0584 6.15603C36.167 5.98937 36.3373 5.87266 36.5319 5.83159C36.7266 5.79052 36.9296 5.82845 37.0962 5.93704C37.2629 6.04563 37.3796 6.21597 37.4207 6.41061C37.4617 6.60524 37.4238 6.80822 37.3152 6.97488L34.4939 11.3046C34.4258 11.4094 34.3326 11.4955 34.2227 11.555C34.1128 11.6144 33.9897 11.6455 33.8648 11.6452Z" fill="#F7881F"/>
  <path d="M39.0857 20.8171C38.8899 20.8164 38.7022 20.7392 38.5626 20.6019C38.423 20.4646 38.3426 20.2782 38.3385 20.0825C38.3345 19.8867 38.4072 19.6972 38.5411 19.5543C38.6749 19.4114 38.8594 19.3266 39.055 19.3179L44.2185 19.1029C44.4166 19.0971 44.6091 19.1689 44.755 19.3031C44.9009 19.4372 44.9885 19.6231 44.9993 19.821C45.0034 19.9194 44.9882 20.0176 44.9543 20.1101C44.9205 20.2026 44.8688 20.2875 44.8021 20.36C44.7355 20.4324 44.6552 20.4911 44.5658 20.5325C44.4765 20.5739 44.3799 20.5973 44.2815 20.6014L39.1179 20.8164L39.0857 20.8171Z" fill="#F7881F"/>
  <path d="M28.1629 23.5977C27.9974 23.5979 27.8364 23.5433 27.7051 23.4425C27.5737 23.3416 27.4795 23.2001 27.437 23.0401C27.3946 22.88 27.4062 22.7104 27.4702 22.5577C27.5342 22.405 27.647 22.2778 27.7909 22.1959L28.4178 21.8388C28.6141 21.7281 28.7865 21.5795 28.9248 21.4016C29.0631 21.2236 29.1646 21.02 29.2235 20.8024C29.3119 20.477 29.3019 20.1326 29.1947 19.8129C29.0875 19.4931 28.888 19.2123 28.6213 19.0058C28.3545 18.7994 28.0326 18.6767 27.6962 18.6532C27.3598 18.6296 27.0239 18.7063 26.731 18.8736L26.1026 19.2307C25.9297 19.329 25.7249 19.3545 25.5331 19.3018C25.3414 19.249 25.1785 19.1223 25.0802 18.9494C24.9819 18.7765 24.9563 18.5717 25.009 18.3799C25.0618 18.1882 25.1885 18.0252 25.3614 17.9269L25.9891 17.5699C26.3551 17.3608 26.7587 17.2258 27.1768 17.1729C27.595 17.1199 28.0195 17.1499 28.426 17.2612C28.8325 17.3725 29.2132 17.5628 29.546 17.8214C29.8789 18.0799 30.1576 18.4015 30.366 18.7679C30.5745 19.1342 30.7086 19.5381 30.7608 19.9563C30.813 20.3746 30.7822 20.799 30.6701 21.2054C30.5581 21.6117 30.367 21.9919 30.1078 22.3243C29.8487 22.6567 29.5265 22.9348 29.1598 23.1425L28.5335 23.4996C28.4206 23.564 28.2929 23.5978 28.1629 23.5977Z" fill="#F7881F"/>
</svg>