<svg xmlns="http://www.w3.org/2000/svg" width="40" height="40" viewBox="0 0 40 40" fill="none">
  <path d="M19.9999 26.6672C23.6766 26.6672 26.6666 23.6772 26.6666 20.0005V10.0005C26.6666 6.30549 23.6916 3.29883 20.0349 3.29883C19.9176 3.29953 19.8008 3.31351 19.6866 3.34049C17.9753 3.42346 16.3615 4.16108 15.1789 5.40075C13.9963 6.64041 13.3355 8.28724 13.3333 10.0005V20.0005C13.3333 23.6772 16.3233 26.6672 19.9999 26.6672Z" fill="#B7B7B7"/>
  <path d="M18.3334 33.2183V36.6667H21.6667V33.2183C28.2317 32.3933 33.3334 26.7883 33.3334 20H30.0001C30.0001 25.515 25.5151 30 20.0001 30C14.4851 30 10.0001 25.515 10.0001 20H6.66675C6.66675 26.7867 11.7684 32.3933 18.3334 33.2183Z" fill="#B7B7B7"/>
</svg>