<svg xmlns="http://www.w3.org/2000/svg" width="14" height="14" viewBox="0 0 14 14" fill="none">
  <g clip-path="url(#clip0_73_18156)">
    <path d="M9.62119 3.70239C9.34961 3.42777 8.9071 3.42431 8.63126 3.69467L3.45709 8.80849L1.20783 6.47995C0.939559 6.20035 0.495432 6.19117 0.215859 6.45944C-0.0637446 6.72771 -0.0729219 7.17184 0.195347 7.45141C0.196562 7.45265 0.197748 7.4539 0.198963 7.45515L2.94146 10.2973C3.0727 10.4311 3.25209 10.507 3.43958 10.5077H3.4473C3.63124 10.5071 3.80762 10.4343 3.93841 10.305L9.61487 4.69232C9.88913 4.42035 9.89192 3.97786 9.62119 3.70239Z" fill="#0473C0"/>
    <path d="M7.15097 10.2978C7.28188 10.4313 7.46069 10.5071 7.6477 10.5083H7.65542C7.83936 10.5077 8.01573 10.4349 8.14653 10.3055L13.823 4.69286C14.0803 4.40314 14.054 3.95971 13.7643 3.70241C13.5017 3.46915 13.107 3.46608 12.8408 3.69521L7.66873 8.80903L7.48421 8.61749C7.21597 8.33789 6.77185 8.32868 6.49224 8.59695C6.21264 8.86519 6.20343 9.30931 6.4717 9.58892C6.47291 9.59019 6.47413 9.59144 6.47535 9.59269L7.15097 10.2978Z" fill="#0473C0"/>
  </g>
  <defs>
    <clipPath id="clip0_73_18156">
      <rect width="14" height="14" fill="white"/>
    </clipPath>
  </defs>
</svg>