<svg xmlns="http://www.w3.org/2000/svg" width="126" height="126" viewBox="0 0 126 126" fill="none">
  <path fill-rule="evenodd" clip-rule="evenodd" d="M63.7875 125.992C79.3904 125.694 93.2735 116.532 102.357 102.357C115.813 93.7346 124.751 80.7876 125.879 66.15C125.959 65.3166 126 64.4763 126 63.63L126 63.5123C125.999 63.4582 125.999 63.4041 125.999 63.35L126 63.1749L126 63L126 62.8031L126 62.685C126 62.5272 125.997 62.3697 125.992 62.2125C125.694 46.6096 116.532 32.7265 102.357 23.6428C93.2735 9.46784 79.3904 0.306282 63.7875 0.00753432C63.6303 0.00251752 63.4728 0 63.315 0L63.1969 0.000470466L63 0C62.8832 0 62.7666 0.000496296 62.65 0.00148729C62.5567 0.000496296 62.4634 0 62.37 0C61.5237 0 60.6834 0.0407444 59.85 0.121046C45.2124 1.24936 32.2654 10.1874 23.6428 23.6428C9.46784 32.7265 0.306282 46.6096 0.00753432 62.2125C0.00251752 62.3697 0 62.5272 0 62.685L0.000470466 62.8031L0 63C0 63.1168 0.000496296 63.2334 0.00148729 63.35C0.000496296 63.4433 0 63.5366 0 63.63C0 64.4763 0.0407444 65.3166 0.121046 66.15C1.24936 80.7876 10.1874 93.7346 23.6428 102.357C32.2654 115.813 45.2124 124.751 59.85 125.879C60.6834 125.959 61.5237 126 62.37 126L62.4877 126C62.5418 125.999 62.5959 125.999 62.65 125.999L62.8251 126L63 126L63.1969 126L63.315 126C63.4728 126 63.6303 125.997 63.7875 125.992ZM72.0269 124.182C83.4283 121.546 93.5033 114.01 100.763 103.346C97.506 105.3 94.0043 107.008 90.3016 108.434C85.2799 115.973 79.0111 121.499 72.0269 124.182ZM123.193 75.5679C119.931 85.5102 112.892 94.2645 103.346 100.763C104.997 98.0113 106.472 95.085 107.75 92.0103C114.796 87.4603 120.159 81.8416 123.193 75.5679ZM101.789 101.789C103.589 98.965 105.197 95.939 106.589 92.7414C103.336 94.7367 99.75 96.5109 95.8891 98.0263C94.4605 101.357 92.8341 104.463 91.0359 107.304C94.8668 105.758 98.4675 103.906 101.789 101.789ZM124.656 68.9281C122.893 77.2564 117.025 84.8184 108.27 90.7236C109.336 88.0108 110.249 85.1883 110.998 82.2732C117.674 78.5078 122.461 73.9469 124.656 68.9281ZM107.124 91.4768C108.267 88.6996 109.248 85.7993 110.051 82.7951C106.925 84.4792 103.412 85.9944 99.579 87.3085C98.6697 90.7028 97.5757 93.9462 96.3166 97.0082C100.24 95.4213 103.864 93.563 107.124 91.4768ZM125.207 63.0866C125.012 69.8203 119.94 76.1585 111.261 81.2151C112.652 75.4486 113.4 69.3334 113.4 63C113.4 56.3967 112.587 50.0307 111.08 44.0498C118.874 48.5491 123.8 54.0752 124.952 59.9971C125.099 61.0171 125.185 62.0474 125.207 63.0866ZM112.613 63C112.613 56.1852 111.741 49.6373 110.134 43.5162C109.196 43.0001 108.22 42.4984 107.207 42.012C104.864 40.8876 102.334 39.8513 99.6386 38.9151C101.605 46.335 102.69 54.4695 102.69 63C102.69 71.2657 101.671 79.1596 99.8192 86.3919C102.447 85.4723 104.917 84.4573 107.207 83.358C108.288 82.8388 109.328 82.3022 110.322 81.7493C111.81 75.84 112.613 69.543 112.613 63ZM123.316 53.9251C120.751 49.8494 116.441 46.1371 110.804 42.988C110.254 40.9349 109.622 38.929 108.913 36.9763C115.766 41.7402 120.771 47.5394 123.316 53.9251ZM109.85 42.4669C109.254 40.3282 108.567 38.2436 107.796 36.2201C107.574 36.0732 107.349 35.9275 107.123 35.7827C104.03 33.8034 100.61 32.0295 96.9169 30.4977C97.8437 32.8976 98.671 35.402 99.3898 37.9968C103.214 39.2978 106.722 40.7984 109.85 42.4669ZM124.182 53.9731C121.499 46.9889 115.973 40.7201 108.434 35.6984C107.008 31.9957 105.3 28.494 103.346 25.2368C114.01 32.4967 121.546 42.5717 124.182 53.9731ZM107.304 34.9641C105.758 31.1332 103.906 27.5325 101.789 24.2111C98.4676 22.094 94.8668 20.2419 91.0359 18.6964C93.103 21.9615 94.9433 25.578 96.5167 29.4833C100.422 31.0567 104.039 32.897 107.304 34.9641ZM72.0269 1.81845C83.4283 4.4541 93.5033 11.9903 100.763 22.6542C97.506 20.6999 94.0044 18.9922 90.3016 17.5656C85.2799 10.0267 79.0112 4.50077 72.0269 1.81845ZM72.0749 2.68383C78.4606 5.22862 84.2598 10.2341 89.0238 17.0873C87.071 16.3778 85.0651 15.7457 83.012 15.1959C79.8629 9.55903 76.1506 5.24948 72.0749 2.68383ZM83.5331 16.1504C85.6718 16.7464 87.7564 17.4328 89.7799 18.2038C89.9268 18.4263 90.0725 18.6507 90.2173 18.8768C92.1966 21.9696 93.9705 25.3902 95.5023 29.0832C93.1024 28.1563 90.598 27.329 88.0032 26.6102C86.7022 22.7862 85.2016 19.2776 83.5331 16.1504ZM88.3046 27.5126C90.9425 28.2615 93.483 29.1237 95.9109 30.0891C96.8764 32.517 97.7385 35.0575 98.4874 37.6954C95.9591 36.8666 93.2985 36.1239 90.524 35.476C89.8761 32.7015 89.1334 30.0409 88.3046 27.5126ZM90.7198 36.3312C93.5204 36.9963 96.2007 37.7588 98.7412 38.6091C100.775 46.094 101.902 54.3366 101.902 63C101.902 71.3972 100.843 79.3991 98.9261 86.6988C96.3752 87.5591 93.6822 88.3307 90.867 89.0038C92.404 81.9466 93.3347 74.1944 93.5205 66.0359C93.6474 64.936 93.7125 63.818 93.7125 62.685C93.7125 61.4917 93.6402 60.3149 93.4997 59.1585C93.2653 51.0389 92.2927 43.334 90.7198 36.3312ZM92.4798 54.3003C92.0512 47.8756 91.155 41.7684 89.8674 36.1326C82.9076 34.5425 75.229 33.5493 67.1211 33.2965C79.2209 34.7452 89.1168 43.1557 92.4798 54.3003ZM92.7136 59.22C90.9607 44.9488 78.5171 33.8625 63.3938 33.8625C47.1599 33.8625 34.0138 46.6367 33.8638 62.4122C33.8633 62.5363 33.8629 62.6605 33.8627 62.7849C33.9178 78.6398 47.1006 91.5075 63.3938 91.5075C78.5773 91.5075 91.0598 80.3327 92.7341 65.9793C92.7563 64.9921 92.7675 63.9989 92.7675 63C92.7675 61.7306 92.7494 60.4703 92.7136 59.22ZM92.5307 70.8992C89.2175 82.1285 79.2825 90.6174 67.1211 92.0735C75.287 91.8189 83.0176 90.8133 90.0169 89.2032C91.2766 83.5177 92.1401 77.3647 92.5307 70.8992ZM59.9089 92.1015C51.6212 91.9082 43.7653 90.9418 36.6465 89.3535C35.3228 83.4204 34.431 76.9753 34.0587 70.195C37.1778 81.8476 47.3836 90.7017 59.9089 92.1015ZM33.0752 62.7856C33.0751 62.8571 33.075 62.9285 33.075 63C33.075 72.3332 34.0492 81.1923 35.7972 89.1602C32.2226 88.3309 28.84 87.3437 25.6892 86.2181C23.8511 79.0483 22.8375 71.2132 22.8375 63C22.8375 54.5208 23.9179 46.4446 25.8704 39.0874C29.0131 37.9732 32.3844 36.9961 35.9452 36.1756C34.1423 44.1461 33.1179 53.0316 33.0763 62.4063C33.0754 62.4991 33.075 62.592 33.075 62.685C33.075 62.7186 33.0751 62.7521 33.0752 62.7856ZM34.1052 55.0033C34.5175 48.2639 35.4437 41.8653 36.7968 35.9831C43.8758 34.4147 51.6794 33.4605 59.9088 33.2685C47.4451 34.6615 37.2782 43.4356 34.1052 55.0033ZM90.6772 89.8581C93.4673 89.2021 96.1415 88.45 98.6811 87.6108C97.7366 91.0505 96.6004 94.3288 95.2944 97.4129C92.9091 98.337 90.4179 99.1622 87.835 99.8792C88.9235 96.7436 89.8768 93.3908 90.6772 89.8581ZM87.5152 100.783C90.0519 100.097 92.5037 99.3072 94.8578 98.4224C93.4795 101.543 91.9249 104.455 90.2173 107.123C90.0725 107.349 89.9268 107.574 89.7799 107.796C87.7564 108.567 85.6718 109.254 83.5331 109.85C84.9968 107.106 86.3313 104.069 87.5152 100.783ZM83.012 110.804C85.0651 110.254 87.071 109.622 89.0238 108.913C84.2598 115.766 78.4606 120.771 72.0749 123.316C76.1506 120.751 79.8629 116.441 83.012 110.804ZM83.988 107.207C83.5016 108.22 82.9999 109.196 82.4838 110.134C76.3627 111.741 69.8148 112.613 63 112.613C56.457 112.613 50.16 111.81 44.2507 110.322C43.6978 109.328 43.1612 108.288 42.642 107.207C41.7382 105.324 40.8913 103.319 40.1075 101.206C47.2032 102.978 54.9242 103.95 63 103.95C71.3404 103.95 79.3022 102.913 86.5877 101.029C85.7858 103.208 84.917 105.271 83.988 107.207ZM63 113.4C56.6666 113.4 50.5514 112.652 44.7849 111.261C49.8415 119.94 56.1797 125.012 62.9134 125.207C63.9526 125.185 64.9829 125.099 66.0029 124.952C71.9249 123.8 77.4509 118.874 81.9502 111.08C75.9693 112.587 69.6033 113.4 63 113.4ZM39.1819 100.969C40.3782 104.264 41.7265 107.307 43.2049 110.051C40.2007 109.248 37.3004 108.267 34.5232 107.124C32.7087 104.289 31.0664 101.177 29.6254 97.8338C32.6485 99.0446 35.8436 100.096 39.1819 100.969ZM43.7268 110.998C40.8117 110.249 37.9892 109.336 35.2764 108.27C41.1816 117.025 48.7436 122.893 57.0719 124.656C52.0531 122.461 47.4922 117.674 43.7268 110.998ZM28.59 97.41C29.9634 100.695 31.5278 103.767 33.2586 106.589C30.061 105.197 27.035 103.589 24.2111 101.789C22.411 98.965 20.8026 95.939 19.4113 92.7414C22.2326 94.4722 25.305 96.0366 28.59 97.41ZM33.9897 107.75C30.915 106.472 27.9887 104.997 25.2368 103.346C31.7355 112.892 40.4898 119.931 50.4321 123.193C44.1584 120.159 38.5397 114.796 33.9897 107.75ZM18.2497 92.0103C19.528 95.085 21.0031 98.0113 22.6542 100.763C13.1085 94.2645 6.0689 85.5102 2.80712 75.5679C5.84143 81.8416 11.2045 87.4603 18.2497 92.0103ZM18.876 91.4768C17.7332 88.6996 16.7522 85.7993 15.9489 82.7951C18.6935 84.2735 21.736 85.6218 25.0311 86.8181C25.9043 90.1564 26.9554 93.3515 28.1662 96.3746C24.8227 94.9336 21.7112 93.2913 18.876 91.4768ZM17.7297 90.7236C16.6645 88.0108 15.7507 85.1883 15.0021 82.2733C8.32593 78.5078 3.53879 73.9469 1.34415 68.9281C3.10742 77.2564 8.97475 84.8184 17.7297 90.7236ZM18.793 83.358C17.7116 82.8388 16.6725 82.3022 15.6775 81.7493C14.1905 75.84 13.3875 69.543 13.3875 63C13.3875 56.1852 14.2586 49.6373 15.8664 43.5162C16.8038 43.0001 17.7798 42.4984 18.793 42.012C20.7285 41.083 22.7924 40.2142 24.9712 39.4123C23.0873 46.6978 22.05 54.6596 22.05 63C22.05 71.0758 23.0225 78.7968 24.7945 85.8925C22.6808 85.1087 20.6762 84.2619 18.793 83.358ZM12.6 63C12.6 56.3967 13.4127 50.0307 14.92 44.0498C7.1262 48.5491 2.20007 54.0751 1.04808 59.9971C0.901105 61.0171 0.815456 62.0475 0.793292 63.0866C0.987559 69.8203 6.06044 76.1585 14.7387 81.2151C13.3477 75.4486 12.6 69.3334 12.6 63ZM25.2166 38.4848C21.9307 39.6687 18.8938 41.0032 16.1504 42.4669C16.7464 40.3282 17.4328 38.2436 18.2038 36.2201C18.4263 36.0732 18.6507 35.9275 18.8768 35.7827C21.5449 34.0751 24.457 32.5205 27.5776 31.1422C26.6928 33.4963 25.903 35.9481 25.2166 38.4848ZM15.1959 42.988C15.7457 40.9349 16.3778 38.929 17.0873 36.9763C10.2341 41.7402 5.22862 47.5394 2.68383 53.9251C5.24948 49.8494 9.55903 46.1371 15.1959 42.988ZM27.9737 30.1109C24.6428 31.5394 21.5367 33.1659 18.6964 34.9641C20.2419 31.1332 22.094 27.5324 24.2111 24.2111C27.035 22.411 30.061 20.8026 33.2586 19.4113C31.2633 22.6637 29.4891 26.25 27.9737 30.1109ZM17.5655 35.6984C18.9921 31.9956 20.6999 28.494 22.6542 25.2368C11.9903 32.4967 4.4541 42.5717 1.81845 53.9731C4.50077 46.9888 10.0266 40.7201 17.5655 35.6984ZM33.9897 18.2497C30.915 19.528 27.9887 21.0031 25.2368 22.6542C31.7355 13.1085 40.4898 6.06889 50.4321 2.80712C44.1584 5.84143 38.5397 11.2045 33.9897 18.2497ZM34.5232 18.876C37.3004 17.7332 40.2007 16.7522 43.2049 15.9489C41.5208 19.0753 40.0056 22.5883 38.6915 26.4209C35.2972 27.3303 32.0538 28.4243 28.9918 29.6833C30.5787 25.7603 32.437 22.1357 34.5232 18.876ZM35.2764 17.7297C37.9892 16.6645 40.8117 15.7507 43.7267 15.0021C47.4922 8.32594 52.0531 3.53879 57.0719 1.34415C48.7436 3.10742 41.1816 8.97476 35.2764 17.7297ZM42.642 18.793C43.1612 17.7116 43.6978 16.6725 44.2507 15.6775C50.16 14.1905 56.457 13.3875 63 13.3875C69.8148 13.3875 76.3627 14.2586 82.4838 15.8664C82.9999 16.8038 83.5016 17.7798 83.988 18.793C85.1124 21.1357 86.1487 23.6665 87.0849 26.3614C79.665 24.3951 71.5305 23.31 63 23.31C54.7343 23.31 46.8404 24.3288 39.6081 26.1808C40.5277 23.5534 41.5427 21.0833 42.642 18.793ZM63 12.6C69.6033 12.6 75.9693 13.4127 81.9502 14.92C77.4509 7.1262 71.9249 2.20007 66.003 1.04808C64.9829 0.901105 63.9525 0.815456 62.9134 0.793292C56.1797 0.987559 49.8415 6.06044 44.7849 14.7387C50.5514 13.3477 56.6666 12.6 63 12.6ZM63 24.0975C71.6634 24.0975 79.9061 25.2253 87.3909 27.2588C88.2412 29.7993 89.0037 32.4796 89.6688 35.2802C81.57 33.4612 72.5322 32.445 63 32.445C53.7279 32.445 44.9236 33.4065 36.9962 35.1331C37.6693 32.3178 38.4409 29.6248 39.3012 27.0739C46.6009 25.1571 54.6028 24.0975 63 24.0975ZM63 92.925C72.5933 92.925 81.6858 91.8958 89.8244 90.0548C89.0039 93.6156 88.0268 96.9869 86.9126 100.13C79.5554 102.082 71.4792 103.163 63 103.163C54.7868 103.163 46.9517 102.149 39.7819 100.311C38.6564 97.16 37.6691 93.7774 36.8398 90.2028C44.8077 91.9508 53.6668 92.925 63 92.925ZM35.9879 90.0121C36.7972 93.5597 37.7611 96.9246 38.8613 100.069C35.4743 99.1603 32.241 98.0663 29.1924 96.8076C27.9337 93.759 26.8397 90.5257 25.9307 87.1388C29.0754 88.2389 32.4403 89.2028 35.9879 90.0121ZM36.1419 35.3229C32.6092 36.1232 29.2564 37.0765 26.1208 38.165C26.8378 35.5821 27.663 33.0909 28.5871 30.7056C31.6712 29.3996 34.9495 28.2634 38.3892 27.3189C37.55 29.8585 36.7979 32.5327 36.1419 35.3229Z" fill="url(#paint0_linear_73_14945)" fill-opacity="0.04"/>
  <defs>
    <linearGradient id="paint0_linear_73_14945" x1="14.175" y1="18.1125" x2="103.95" y2="124.425" gradientUnits="userSpaceOnUse">
      <stop stop-color="white"/>
      <stop offset="0.376612" stop-color="white"/>
      <stop offset="1" stop-color="white" stop-opacity="0"/>
    </linearGradient>
  </defs>
</svg>