<svg xmlns="http://www.w3.org/2000/svg" width="19" height="18" viewBox="0 0 19 18" fill="none">
  <g clip-path="url(#clip0_73_18118)">
    <path d="M10.6578 9.01513L17.6724 2.00034C18.1289 1.54406 18.1289 0.806308 17.6724 0.350025C17.2161 -0.106258 16.4783 -0.106258 16.0221 0.350025L9.00727 7.36482L1.99269 0.350025C1.53619 -0.106258 0.798656 -0.106258 0.342373 0.350025C-0.114124 0.806308 -0.114124 1.54406 0.342373 2.00034L7.35695 9.01513L0.342373 16.0299C-0.114124 16.4862 -0.114124 17.224 0.342373 17.6802C0.569766 17.9078 0.868755 18.0222 1.16753 18.0222C1.4663 18.0222 1.76508 17.9078 1.99269 17.6802L9.00727 10.6654L16.0221 17.6802C16.2497 17.9078 16.5484 18.0222 16.8472 18.0222C17.146 18.0222 17.4448 17.9078 17.6724 17.6802C18.1289 17.224 18.1289 16.4862 17.6724 16.0299L10.6578 9.01513Z" fill="#FAFAFA"/>
  </g>
  <defs>
    <clipPath id="clip0_73_18118">
      <rect width="18.0147" height="18" fill="white"/>
    </clipPath>
  </defs>
</svg>