<svg xmlns="http://www.w3.org/2000/svg" width="26" height="26" viewBox="0 0 26 26" fill="none">
  <g clip-path="url(#clip0_73_16197)">
    <path d="M25.1876 26C24.9255 26 24.6676 25.8733 24.5105 25.6382L22.9874 23.3534C22.736 22.9753 22.3157 22.75 21.8618 22.75H8.3418C7.8933 22.75 7.5293 22.386 7.5293 21.9375C7.5293 21.489 7.8933 21.125 8.3418 21.125H21.8618C22.8595 21.125 23.7869 21.6212 24.3405 22.4521L25.8636 24.7368C26.1128 25.1106 26.012 25.6154 25.6383 25.8635C25.4996 25.9556 25.3436 26 25.1876 26Z" fill="white"/>
    <path d="M6.22921 20.8509C5.78071 20.8509 5.41671 20.4869 5.41671 20.0384V1.93917C5.41671 1.79075 5.29646 1.66942 5.14804 1.66833L0.804955 1.625C0.355372 1.62067 -0.00429459 1.25233 3.87485e-05 0.803833C0.00437208 0.358583 0.367289 0 0.812539 0H0.820122L5.16429 0.0433333C6.19996 0.0541667 7.04171 0.904583 7.04171 1.93917V20.0384C7.04171 20.4869 6.67771 20.8509 6.22921 20.8509Z" fill="white"/>
    <path d="M5.9585 25.9961C4.16666 25.9961 2.7085 24.5379 2.7085 22.7461C2.7085 20.9543 4.16666 19.4961 5.9585 19.4961C7.75033 19.4961 9.2085 20.9543 9.2085 22.7461C9.2085 24.5379 7.75033 25.9961 5.9585 25.9961ZM5.9585 21.1211C5.06258 21.1211 4.3335 21.8502 4.3335 22.7461C4.3335 23.642 5.06258 24.3711 5.9585 24.3711C6.85441 24.3711 7.5835 23.642 7.5835 22.7461C7.5835 21.8502 6.85441 21.1211 5.9585 21.1211Z" fill="white"/>
    <path d="M15.7085 16.2493C15.26 16.2493 14.896 15.8853 14.896 15.4368V6.22852C14.896 5.78002 15.26 5.41602 15.7085 5.41602C16.157 5.41602 16.521 5.78002 16.521 6.22852V15.4368C16.521 15.8853 16.157 16.2493 15.7085 16.2493Z" fill="white"/>
    <path d="M19.7707 10.8343C19.5714 10.8343 19.3731 10.7628 19.216 10.6155L15.7082 7.34164L12.2004 10.6144C11.8721 10.9221 11.3586 10.9036 11.052 10.5754C10.7454 10.2471 10.7639 9.73364 11.0921 9.42706L15.1546 5.63539C15.4666 5.34289 15.9509 5.34289 16.2629 5.63539L20.3254 9.42706C20.6536 9.73256 20.6709 10.2471 20.3654 10.5754C20.204 10.7476 19.9884 10.8343 19.7707 10.8343Z" fill="white"/>
  </g>
  <defs>
    <clipPath id="clip0_73_16197">
      <rect width="26" height="26" fill="white"/>
    </clipPath>
  </defs>
</svg>