<svg xmlns="http://www.w3.org/2000/svg" width="26" height="26" viewBox="0 0 26 26" fill="none">
  <path d="M23.4404 15.1791L19.8735 14.4089V13.3624C20.0604 13.091 20.2343 12.7432 20.4146 12.3809C20.5495 12.1111 20.7526 11.7065 20.829 11.6171C21.3685 11.0955 22.0153 10.374 22.2298 9.40712C22.4183 8.48575 22.1729 8.01125 22.0348 7.83087C22.0348 7.0785 22.0348 5.95888 21.804 5.09437C21.7731 4.03325 21.5635 3.40762 21.089 2.91363C20.7185 2.48462 20.1823 2.392 19.7516 2.31725C19.6184 2.2945 19.4185 2.26037 19.347 2.22462C18.6223 1.83462 17.904 1.6445 17.0265 1.625C15.6615 1.68513 14.2851 2.29288 13.3459 3.25C13.0323 3.57012 13.0355 4.08525 13.3573 4.39887C13.6758 4.7125 14.1893 4.70925 14.5061 4.3875C15.1545 3.72613 16.1474 3.29062 17.0444 3.25C17.6083 3.263 18.0811 3.38813 18.567 3.64975C18.8595 3.81388 19.1878 3.87075 19.477 3.92113C19.6135 3.9455 19.8443 3.9845 19.8881 4.00725C20.0051 4.13075 20.1676 4.29975 20.1823 5.23088C20.1839 5.304 20.1953 5.37875 20.2164 5.44862C20.4098 6.09862 20.4098 7.18413 20.4098 7.8325C20.4098 8.13638 20.5219 8.35413 20.5966 8.50037C20.6649 8.63525 20.712 8.723 20.6405 9.07075C20.5235 9.59725 20.0994 10.0636 19.6915 10.4585C19.4299 10.7185 19.2138 11.1524 18.9619 11.6545C18.8238 11.9324 18.5914 12.3955 18.4874 12.506C18.3346 12.6588 18.2485 12.8651 18.2485 13.0813V15.0638C18.2485 15.4456 18.515 15.7771 18.8904 15.8584L23.0975 16.7684C23.8499 16.9309 24.3748 17.5874 24.3748 18.3625V19.5H20.1498C19.7013 19.5 19.3373 19.864 19.3373 20.3125C19.3373 20.761 19.7013 21.125 20.1498 21.125H25.1873C25.6358 21.125 25.9998 20.761 25.9998 20.3125V18.3625C25.9998 16.8155 24.9484 15.5074 23.4404 15.1791Z" fill="white"/>
  <path d="M15.314 18.4356L11.7455 17.6605V16.6075C11.9324 16.3378 12.1062 15.9949 12.2866 15.6357C12.4215 15.3692 12.6246 14.9663 12.7091 14.8704C13.2893 14.3033 13.9067 13.598 14.0985 12.6669C14.2902 11.739 14.0481 11.2629 13.9084 11.076C13.9084 10.4227 13.9084 9.23163 13.6809 8.35738C13.6549 7.30275 13.4485 6.6755 12.9529 6.136C12.5808 5.733 12.0559 5.64525 11.635 5.57375C11.4985 5.551 11.2938 5.51687 11.232 5.486C10.5219 5.09112 9.80037 4.89775 8.90662 4.875C7.10287 4.94325 4.88637 6.09213 4.14375 8.15263C3.9325 8.73763 3.9325 9.61188 3.952 10.6129L3.95038 11.0094C3.82037 11.2645 3.57825 11.7406 3.77 12.6669C3.96175 13.5996 4.57925 14.3049 5.1545 14.8671C5.24388 14.9679 5.45025 15.3725 5.58837 15.6406C5.76875 15.9965 5.94425 16.3378 6.1295 16.6075V17.6621L2.561 18.4372C1.07737 18.759 0 20.0948 0 21.6125V23.5625C0 24.011 0.364 24.375 0.8125 24.375H17.0625C17.511 24.375 17.875 24.011 17.875 23.5625V21.6125C17.875 20.0948 16.7976 18.759 15.314 18.4356ZM16.25 22.75H1.625V21.6125C1.625 20.8536 2.1645 20.1858 2.9055 20.0249L7.11425 19.1116C7.488 19.0304 7.7545 18.7005 7.7545 18.317V16.3231C7.7545 16.1151 7.657 15.8974 7.514 15.7462C7.41 15.6357 7.176 15.1775 7.03625 14.9029C6.77787 14.4007 6.55687 13.9669 6.29362 13.7101C5.8695 13.2958 5.46325 12.8424 5.36088 12.3386C5.2845 11.9697 5.33 11.8804 5.39825 11.7471C5.47137 11.6025 5.5835 11.3815 5.5835 11.076L5.577 10.5804C5.56562 10.01 5.54612 9.05288 5.67125 8.7035C6.16525 7.33362 7.73825 6.5455 8.91638 6.5C9.50138 6.51462 9.958 6.6365 10.4439 6.90625C10.7396 7.07037 11.0711 7.12562 11.3636 7.176C11.5131 7.202 11.726 7.23775 11.7585 7.23775C11.8869 7.3775 12.0461 7.55138 12.0575 8.48413C12.0575 8.55725 12.0689 8.63038 12.09 8.70187C12.2834 9.36 12.2834 10.5186 12.2834 11.0744C12.2834 11.3799 12.3955 11.5993 12.4686 11.7455C12.5369 11.8804 12.5824 11.9681 12.506 12.3386C12.4036 12.8424 11.9974 13.2941 11.5733 13.7101C11.3084 13.9669 11.089 14.4007 10.8355 14.9029C10.6974 15.1775 10.465 15.6357 10.3626 15.7446C10.2066 15.8974 10.1205 16.1054 10.1205 16.3231V18.317C10.1205 18.6989 10.387 19.0304 10.7608 19.1116L14.9695 20.0249C15.7105 20.1858 16.25 20.8536 16.25 21.6125V22.75Z" fill="white"/>
</svg>