<svg width="14" height="14" viewBox="0 0 14 14" fill="none" xmlns="http://www.w3.org/2000/svg">
<g id="vuesax/linear/profile">
<g id="profile">
<path id="Vector" d="M7.09325 6.34018C7.03491 6.33435 6.96491 6.33435 6.90075 6.34018C5.51241 6.29352 4.40991 5.15602 4.40991 3.75602C4.40991 2.32685 5.56491 1.16602 6.99991 1.16602C8.42908 1.16602 9.58991 2.32685 9.58991 3.75602C9.58408 5.15602 8.48158 6.29352 7.09325 6.34018Z" stroke="#6855A4" stroke-linecap="round" stroke-linejoin="round"/>
<path id="Vector_2" d="M4.17667 8.49398C2.765 9.43898 2.765 10.979 4.17667 11.9182C5.78084 12.9915 8.41167 12.9915 10.0158 11.9182C11.4275 10.9732 11.4275 9.43315 10.0158 8.49398C8.4175 7.42648 5.78667 7.42648 4.17667 8.49398Z" stroke="#6855A4" stroke-linecap="round" stroke-linejoin="round"/>
</g>
</g>
</svg>
